<svg width="70" height="70" viewBox="0 0 70 70" fill="none" xmlns="http://www.w3.org/2000/svg">
<g id="01 align center">
<path id="Vector" d="M70 8.75H12.3725L12.25 7.72625C11.9993 5.5983 10.9765 3.6363 9.3756 2.21223C7.77465 0.788151 5.70683 0.000996898 3.56417 0L0 0V5.83333H3.56417C4.27856 5.83343 4.96807 6.09571 5.50192 6.57042C6.03577 7.04513 6.37683 7.69927 6.46042 8.40875L11.0833 47.6904C11.334 49.8184 12.3568 51.7804 13.9577 53.2044C15.5587 54.6285 17.6265 55.4157 19.7692 55.4167H58.3333V49.5833H19.7692C19.0543 49.5832 18.3645 49.3205 17.8305 48.8452C17.2966 48.3698 16.9558 47.715 16.8729 47.005L16.4908 43.75H63.6883L70 8.75ZM58.8117 37.9167H15.8054L13.0608 14.5833H63.0204L58.8117 37.9167Z" fill="url(#paint0_linear_1_289)"/>
<path id="Vector_2" d="M20.4171 70.0019C23.6388 70.0019 26.2504 67.3902 26.2504 64.1685C26.2504 60.9469 23.6388 58.3352 20.4171 58.3352C17.1955 58.3352 14.5838 60.9469 14.5838 64.1685C14.5838 67.3902 17.1955 70.0019 20.4171 70.0019Z" fill="url(#paint1_linear_1_289)"/>
<path id="Vector_3" d="M49.5833 70.0019C52.805 70.0019 55.4166 67.3902 55.4166 64.1685C55.4166 60.9469 52.805 58.3352 49.5833 58.3352C46.3617 58.3352 43.75 60.9469 43.75 64.1685C43.75 67.3902 46.3617 70.0019 49.5833 70.0019Z" fill="url(#paint2_linear_1_289)"/>
</g>
<defs>
<linearGradient id="paint0_linear_1_289" x1="73.8286" y1="-554.327" x2="-1.46955" y2="-554.327" gradientUnits="userSpaceOnUse">
<stop stop-color="#9D0055"/>
<stop offset="1" stop-color="#FF0000"/>
</linearGradient>
<linearGradient id="paint1_linear_1_289" x1="26.8886" y1="-58.3651" x2="14.3389" y2="-58.3651" gradientUnits="userSpaceOnUse">
<stop stop-color="#9D0055"/>
<stop offset="1" stop-color="#FF0000"/>
</linearGradient>
<linearGradient id="paint2_linear_1_289" x1="56.0548" y1="-58.3651" x2="43.5051" y2="-58.3651" gradientUnits="userSpaceOnUse">
<stop stop-color="#9D0055"/>
<stop offset="1" stop-color="#FF0000"/>
</linearGradient>
</defs>
</svg>
