<svg width="70" height="70" viewBox="0 0 70 70" fill="none" xmlns="http://www.w3.org/2000/svg">
<g id="01 align center">
<path id="Vector" d="M64.1667 20.4167C65.7138 20.4167 67.1975 19.8021 68.2915 18.7081C69.3854 17.6142 70 16.1304 70 14.5833V0H64.1667V14.5833H52.3425C50.9432 11.1352 48.547 8.18305 45.4604 6.10454C42.3738 4.02603 38.7372 2.91574 35.016 2.91574C31.2948 2.91574 27.6583 4.02603 24.5717 6.10454C21.4851 8.18305 19.0888 11.1352 17.6896 14.5833H5.83333V0H0V14.5833C0 16.1304 0.614582 17.6142 1.70854 18.7081C2.80251 19.8021 4.28624 20.4167 5.83333 20.4167H15.9979L13.0433 32.0833H0V37.9167H11.5646L11.1417 39.5879L11.0833 39.9583C10.9533 40.9565 10.8851 41.9618 10.8792 42.9683C10.8821 45.2066 11.1992 47.4333 11.8213 49.5833H5.83333C4.28624 49.5833 2.80251 50.1979 1.70854 51.2919C0.614582 52.3858 0 53.8696 0 55.4167L0 70H5.83333V55.4167H14.3792C16.5174 58.9754 19.5403 61.9203 23.1537 63.9647C26.7672 66.0092 30.8483 67.0836 35 67.0836C39.1517 67.0836 43.2328 66.0092 46.8463 63.9647C50.4597 61.9203 53.4826 58.9754 55.6208 55.4167H64.1667V70H70V55.4167C70 53.8696 69.3854 52.3858 68.2915 51.2919C67.1975 50.1979 65.7138 49.5833 64.1667 49.5833H58.1788C58.8041 47.4289 59.1232 45.1971 59.1267 42.9538C59.1182 41.9519 59.0481 40.9516 58.9167 39.9583L58.4063 37.9167H70V32.0833H56.9392L53.9963 20.4167H64.1667ZM35 61.25C30.1495 61.2446 25.4992 59.3151 22.0696 55.885C18.64 52.4549 16.7113 47.8043 16.7067 42.9538C16.7107 42.2449 16.7565 41.5368 16.8438 40.8333L22.7646 17.4125C23.6532 14.8899 25.2997 12.7035 27.4788 11.1528C29.6578 9.60202 32.263 8.76265 34.9375 8.74956C37.612 8.73646 40.2252 9.5503 42.4193 11.0796C44.6135 12.609 46.2813 14.7791 47.1946 17.2929L53.1563 40.8333C53.2433 41.5349 53.2891 42.241 53.2933 42.9479C53.2902 47.7995 51.3622 52.4516 47.9325 55.8829C44.5027 59.3143 39.8516 61.2446 35 61.25V61.25Z" fill="url(#paint0_linear_1_306)"/>
</g>
<defs>
<linearGradient id="paint0_linear_1_306" x1="73.8286" y1="-700.203" x2="-1.46955" y2="-700.203" gradientUnits="userSpaceOnUse">
<stop stop-color="#9D0055"/>
<stop offset="1" stop-color="#FF0000"/>
</linearGradient>
</defs>
</svg>
