<svg width="70" height="70" viewBox="0 0 70 70" fill="none" xmlns="http://www.w3.org/2000/svg">
<g id="fi-rr-stats" clip-path="url(#clip0_1_165)">
<path id="Vector" d="M67.0833 64.1667H8.75C7.97645 64.1667 7.23459 63.8594 6.68761 63.3124C6.14062 62.7654 5.83333 62.0235 5.83333 61.25V2.91667C5.83333 2.14312 5.52604 1.40125 4.97906 0.854272C4.43208 0.307291 3.69021 0 2.91667 0C2.14312 0 1.40125 0.307291 0.854272 0.854272C0.307291 1.40125 0 2.14312 0 2.91667L0 61.25C0 63.5706 0.921872 65.7962 2.56282 67.4372C4.20376 69.0781 6.42936 70 8.75 70H67.0833C67.8569 70 68.5988 69.6927 69.1457 69.1457C69.6927 68.5988 70 67.8569 70 67.0833C70 66.3098 69.6927 65.5679 69.1457 65.0209C68.5988 64.474 67.8569 64.1667 67.0833 64.1667Z" fill="url(#paint0_linear_1_165)"/>
<path id="Vector_2" d="M43.7504 58.3351C44.524 58.3351 45.2658 58.0279 45.8128 57.4809C46.3598 56.9339 46.6671 56.192 46.6671 55.4185V35.0018C46.6671 34.2283 46.3598 33.4864 45.8128 32.9394C45.2658 32.3924 44.524 32.0851 43.7504 32.0851C42.9769 32.0851 42.235 32.3924 41.688 32.9394C41.141 33.4864 40.8337 34.2283 40.8337 35.0018V55.4185C40.8337 56.192 41.141 56.9339 41.688 57.4809C42.235 58.0279 42.9769 58.3351 43.7504 58.3351Z" fill="url(#paint1_linear_1_165)"/>
<path id="Vector_3" d="M20.4167 58.3351C21.1902 58.3351 21.9321 58.0279 22.4791 57.4809C23.026 56.9339 23.3333 56.192 23.3333 55.4185V35.0018C23.3333 34.2283 23.026 33.4864 22.4791 32.9394C21.9321 32.3924 21.1902 32.0851 20.4167 32.0851C19.6431 32.0851 18.9013 32.3924 18.3543 32.9394C17.8073 33.4864 17.5 34.2283 17.5 35.0018V55.4185C17.5 56.192 17.8073 56.9339 18.3543 57.4809C18.9013 58.0279 19.6431 58.3351 20.4167 58.3351Z" fill="url(#paint2_linear_1_165)"/>
<path id="Vector_4" d="M55.4167 58.3333C56.1902 58.3333 56.9321 58.026 57.4791 57.4791C58.0261 56.9321 58.3334 56.1902 58.3334 55.4167V20.4167C58.3334 19.6431 58.0261 18.9013 57.4791 18.3543C56.9321 17.8073 56.1902 17.5 55.4167 17.5C54.6431 17.5 53.9013 17.8073 53.3543 18.3543C52.8073 18.9013 52.5 19.6431 52.5 20.4167V55.4167C52.5 56.1902 52.8073 56.9321 53.3543 57.4791C53.9013 58.026 54.6431 58.3333 55.4167 58.3333Z" fill="url(#paint3_linear_1_165)"/>
<path id="Vector_5" d="M32.0829 58.3333C32.8564 58.3333 33.5983 58.026 34.1453 57.4791C34.6923 56.9321 34.9996 56.1902 34.9996 55.4167V20.4167C34.9996 19.6431 34.6923 18.9013 34.1453 18.3543C33.5983 17.8073 32.8564 17.5 32.0829 17.5C31.3093 17.5 30.5675 17.8073 30.0205 18.3543C29.4735 18.9013 29.1662 19.6431 29.1662 20.4167V55.4167C29.1662 56.1902 29.4735 56.9321 30.0205 57.4791C30.5675 58.026 31.3093 58.3333 32.0829 58.3333Z" fill="url(#paint4_linear_1_165)"/>
</g>
<defs>
<linearGradient id="paint0_linear_1_165" x1="73.8286" y1="-700.203" x2="-1.46955" y2="-700.203" gradientUnits="userSpaceOnUse">
<stop stop-color="#9D0055"/>
<stop offset="1" stop-color="#FF0000"/>
</linearGradient>
<linearGradient id="paint1_linear_1_165" x1="46.9862" y1="-230.491" x2="40.7113" y2="-230.491" gradientUnits="userSpaceOnUse">
<stop stop-color="#9D0055"/>
<stop offset="1" stop-color="#FF0000"/>
</linearGradient>
<linearGradient id="paint2_linear_1_165" x1="23.6524" y1="-230.491" x2="17.3775" y2="-230.491" gradientUnits="userSpaceOnUse">
<stop stop-color="#9D0055"/>
<stop offset="1" stop-color="#FF0000"/>
</linearGradient>
<linearGradient id="paint3_linear_1_165" x1="58.6524" y1="-390.952" x2="52.3775" y2="-390.952" gradientUnits="userSpaceOnUse">
<stop stop-color="#9D0055"/>
<stop offset="1" stop-color="#FF0000"/>
</linearGradient>
<linearGradient id="paint4_linear_1_165" x1="35.3186" y1="-390.952" x2="29.0437" y2="-390.952" gradientUnits="userSpaceOnUse">
<stop stop-color="#9D0055"/>
<stop offset="1" stop-color="#FF0000"/>
</linearGradient>
<clipPath id="clip0_1_165">
<rect width="70" height="70" fill="white"/>
</clipPath>
</defs>
</svg>
