<svg width="48" height="70" viewBox="0 0 48 70" fill="none" xmlns="http://www.w3.org/2000/svg">
<g id="01 align center">
<path id="Vector" d="M0.666199 -3.05176e-05V61.25C0.666199 63.5706 1.58807 65.7962 3.22901 67.4372C4.86996 69.0781 7.09555 70 9.4162 70H38.5829C40.9035 70 43.1291 69.0781 44.7701 67.4372C46.411 65.7962 47.3329 63.5706 47.3329 61.25V-3.05176e-05H0.666199ZM41.4995 5.8333V46.6666H6.49953V5.8333H41.4995ZM38.5829 64.1666H9.4162C8.64265 64.1666 7.90079 63.8593 7.3538 63.3124C6.80682 62.7654 6.49953 62.0235 6.49953 61.25V52.5H41.4995V61.25C41.4995 62.0235 41.1922 62.7654 40.6453 63.3124C40.0983 63.8593 39.3564 64.1666 38.5829 64.1666Z" fill="url(#paint0_linear_1_294)"/>
<path id="Vector_2" d="M26.9158 55.4149H21.0824V61.2482H26.9158V55.4149Z" fill="url(#paint1_linear_1_294)"/>
</g>
<defs>
<linearGradient id="paint0_linear_1_294" x1="49.8853" y1="-700.203" x2="-0.313501" y2="-700.203" gradientUnits="userSpaceOnUse">
<stop stop-color="#9D0055"/>
<stop offset="1" stop-color="#FF0000"/>
</linearGradient>
<linearGradient id="paint1_linear_1_294" x1="27.2348" y1="-2.93573" x2="20.9599" y2="-2.93573" gradientUnits="userSpaceOnUse">
<stop stop-color="#9D0055"/>
<stop offset="1" stop-color="#FF0000"/>
</linearGradient>
</defs>
</svg>
