<svg width="70" height="70" viewBox="0 0 70 70" fill="none" xmlns="http://www.w3.org/2000/svg">
<g id="fi-rr-layout-fluid" clip-path="url(#clip0_1_157)">
<path id="Vector" d="M5.83333 32.0833H37.9167C39.4638 32.0833 40.9475 31.4687 42.0415 30.3748C43.1354 29.2808 43.75 27.7971 43.75 26.25V5.83333C43.75 4.28624 43.1354 2.80251 42.0415 1.70854C40.9475 0.614582 39.4638 0 37.9167 0L5.83333 0C4.28624 0 2.80251 0.614582 1.70854 1.70854C0.614582 2.80251 0 4.28624 0 5.83333L0 26.25C0 27.7971 0.614582 29.2808 1.70854 30.3748C2.80251 31.4687 4.28624 32.0833 5.83333 32.0833ZM5.83333 5.83333H37.9167V26.25H5.83333V5.83333Z" fill="url(#paint0_linear_1_157)"/>
<path id="Vector_2" d="M64.1671 0H55.4171C53.87 0 52.3862 0.614582 51.2923 1.70854C50.1983 2.80251 49.5837 4.28624 49.5837 5.83333V26.25C49.5837 27.7971 50.1983 29.2808 51.2923 30.3748C52.3862 31.4688 53.87 32.0833 55.4171 32.0833H64.1671C65.7142 32.0833 67.1979 31.4688 68.2919 30.3748C69.3858 29.2808 70.0004 27.7971 70.0004 26.25V5.83333C70.0004 4.28624 69.3858 2.80251 68.2919 1.70854C67.1979 0.614582 65.7142 0 64.1671 0V0ZM64.1671 26.25H55.4171V5.83333H64.1671V26.25Z" fill="url(#paint1_linear_1_157)"/>
<path id="Vector_3" d="M14.5833 37.9176H5.83333C4.28624 37.9176 2.80251 38.5322 1.70854 39.6261C0.614582 40.7201 0 42.2038 0 43.7509L0 64.1676C0 65.7147 0.614582 67.1984 1.70854 68.2923C2.80251 69.3863 4.28624 70.0009 5.83333 70.0009H14.5833C16.1304 70.0009 17.6142 69.3863 18.7081 68.2923C19.8021 67.1984 20.4167 65.7147 20.4167 64.1676V43.7509C20.4167 42.2038 19.8021 40.7201 18.7081 39.6261C17.6142 38.5322 16.1304 37.9176 14.5833 37.9176ZM14.5833 64.1676H5.83333V43.7509H14.5833V64.1676Z" fill="url(#paint2_linear_1_157)"/>
<path id="Vector_4" d="M64.1667 37.9176H32.0833C30.5362 37.9176 29.0525 38.5322 27.9585 39.6261C26.8646 40.7201 26.25 42.2038 26.25 43.7509V64.1676C26.25 65.7147 26.8646 67.1984 27.9585 68.2923C29.0525 69.3863 30.5362 70.0009 32.0833 70.0009H64.1667C65.7138 70.0009 67.1975 69.3863 68.2915 68.2923C69.3854 67.1984 70 65.7147 70 64.1676V43.7509C70 42.2038 69.3854 40.7201 68.2915 39.6261C67.1975 38.5322 65.7138 37.9176 64.1667 37.9176ZM64.1667 64.1676H32.0833V43.7509H64.1667V64.1676Z" fill="url(#paint3_linear_1_157)"/>
</g>
<defs>
<linearGradient id="paint0_linear_1_157" x1="46.1429" y1="-320.926" x2="-0.918469" y2="-320.926" gradientUnits="userSpaceOnUse">
<stop stop-color="#9D0055"/>
<stop offset="1" stop-color="#FF0000"/>
</linearGradient>
<linearGradient id="paint1_linear_1_157" x1="71.1171" y1="-320.926" x2="49.1551" y2="-320.926" gradientUnits="userSpaceOnUse">
<stop stop-color="#9D0055"/>
<stop offset="1" stop-color="#FF0000"/>
</linearGradient>
<linearGradient id="paint2_linear_1_157" x1="21.5334" y1="-283.008" x2="-0.428619" y2="-283.008" gradientUnits="userSpaceOnUse">
<stop stop-color="#9D0055"/>
<stop offset="1" stop-color="#FF0000"/>
</linearGradient>
<linearGradient id="paint3_linear_1_157" x1="72.3929" y1="-283.008" x2="25.3315" y2="-283.008" gradientUnits="userSpaceOnUse">
<stop stop-color="#9D0055"/>
<stop offset="1" stop-color="#FF0000"/>
</linearGradient>
<clipPath id="clip0_1_157">
<rect width="70" height="70" fill="white"/>
</clipPath>
</defs>
</svg>
