<svg width="70" height="70" viewBox="0 0 70 70" fill="none" xmlns="http://www.w3.org/2000/svg">
<g id="fi-rs-browser" clip-path="url(#clip0_1_153)">
<path id="Vector" d="M61.25 2.91687H8.75C6.42936 2.91687 4.20376 3.83874 2.56282 5.47969C0.921872 7.12063 0 9.34623 0 11.6669L0 67.0835H70V11.6669C70 9.34623 69.0781 7.12063 67.4372 5.47969C65.7962 3.83874 63.5706 2.91687 61.25 2.91687V2.91687ZM8.75 8.7502H61.25C62.0235 8.7502 62.7654 9.05749 63.3124 9.60448C63.8594 10.1515 64.1667 10.8933 64.1667 11.6669V20.4169H5.83333V11.6669C5.83333 10.8933 6.14062 10.1515 6.68761 9.60448C7.23459 9.05749 7.97645 8.7502 8.75 8.7502V8.7502ZM5.83333 61.2502V26.2502H64.1667V61.2502H5.83333ZM14.5833 35.0002H55.4167V40.8335H14.5833V35.0002ZM14.5833 46.6669H43.75V52.5002H14.5833V46.6669ZM8.75 14.5835C8.75 14.0067 8.92106 13.4428 9.24155 12.9631C9.56203 12.4835 10.0176 12.1096 10.5505 11.8889C11.0835 11.6681 11.6699 11.6104 12.2357 11.7229C12.8015 11.8355 13.3212 12.1132 13.7291 12.5211C14.137 12.929 14.4148 13.4487 14.5273 14.0145C14.6398 14.5803 14.5821 15.1667 14.3613 15.6997C14.1406 16.2326 13.7667 16.6882 13.2871 17.0087C12.8074 17.3291 12.2435 17.5002 11.6667 17.5002C10.8931 17.5002 10.1513 17.1929 9.60427 16.6459C9.05729 16.099 8.75 15.3571 8.75 14.5835ZM17.5 14.5835C17.5 14.0067 17.6711 13.4428 17.9915 12.9631C18.312 12.4835 18.7676 12.1096 19.3005 11.8889C19.8335 11.6681 20.4199 11.6104 20.9857 11.7229C21.5515 11.8355 22.0712 12.1132 22.4791 12.5211C22.887 12.929 23.1648 13.4487 23.2773 14.0145C23.3898 14.5803 23.3321 15.1667 23.1113 15.6997C22.8906 16.2326 22.5167 16.6882 22.0371 17.0087C21.5574 17.3291 20.9935 17.5002 20.4167 17.5002C19.6431 17.5002 18.9013 17.1929 18.3543 16.6459C17.8073 16.099 17.5 15.3571 17.5 14.5835ZM26.25 14.5835C26.25 14.0067 26.4211 13.4428 26.7415 12.9631C27.062 12.4835 27.5176 12.1096 28.0505 11.8889C28.5835 11.6681 29.1699 11.6104 29.7357 11.7229C30.3015 11.8355 30.8212 12.1132 31.2291 12.5211C31.637 12.929 31.9148 13.4487 32.0273 14.0145C32.1398 14.5803 32.0821 15.1667 31.8613 15.6997C31.6406 16.2326 31.2667 16.6882 30.7871 17.0087C30.3074 17.3291 29.7435 17.5002 29.1667 17.5002C28.3931 17.5002 27.6513 17.1929 27.1043 16.6459C26.5573 16.099 26.25 15.3571 26.25 14.5835Z" fill="url(#paint0_linear_1_153)"/>
</g>
<defs>
<linearGradient id="paint0_linear_1_153" x1="73.8286" y1="-638.936" x2="-1.46955" y2="-638.936" gradientUnits="userSpaceOnUse">
<stop stop-color="#9D0055"/>
<stop offset="1" stop-color="#FF0000"/>
</linearGradient>
<clipPath id="clip0_1_153">
<rect width="70" height="70" fill="white"/>
</clipPath>
</defs>
</svg>
