<svg width="1440" height="6889" viewBox="0 0 1440 6889" fill="none" xmlns="http://www.w3.org/2000/svg">
<g style="mix-blend-mode:exclusion" filter="url(#filter0_f_282_25)">
<path d="M109.477 2272.64C96.4176 2245.04 37.476 2170.19 61.6439 2138.79C84.4537 2109.16 173.842 2085.7 210.84 2068.2C287.038 2032.14 384.485 2083.38 409.87 2137.03C435.255 2190.68 405.619 2312.13 329.421 2348.19C296.422 2363.8 237.964 2397.45 202.585 2396.15C156.267 2394.45 123.869 2303.05 109.477 2272.64Z" fill="url(#paint0_linear_282_25)"/>
</g>
<g style="mix-blend-mode:exclusion" filter="url(#filter1_f_282_25)">
<path d="M194.965 2164.84C165.658 2102.9 13.1569 1944.51 100.938 1858.17C183.787 1776.68 470.76 1683.19 592.711 1625.48C843.875 1506.64 1125.49 1591.85 1182.45 1712.25C1239.42 1832.65 1098.05 2140.64 846.883 2259.48C738.115 2310.95 542.994 2416.71 433.714 2427.93C290.649 2442.62 227.263 2233.1 194.965 2164.84Z" fill="url(#paint1_linear_282_25)"/>
</g>
<g style="mix-blend-mode:exclusion" filter="url(#filter2_f_282_25)">
<path d="M1247.48 2736.64C1234.42 2709.04 1175.48 2634.19 1199.64 2602.79C1222.45 2573.16 1311.84 2549.7 1348.84 2532.2C1425.04 2496.14 1522.49 2547.38 1547.87 2601.03C1573.26 2654.68 1543.62 2776.13 1467.42 2812.19C1434.42 2827.8 1375.97 2861.45 1340.59 2860.15C1294.27 2858.45 1261.87 2767.05 1247.48 2736.64Z" fill="url(#paint2_linear_282_25)"/>
</g>
<g style="mix-blend-mode:exclusion" filter="url(#filter3_f_282_25)">
<path d="M-359.079 3530.58C-388.386 3468.64 -520.662 3300.68 -466.425 3230.21C-415.236 3163.7 -214.633 3111.07 -131.602 3071.78C39.4021 2990.87 258.091 3105.85 315.059 3226.25C372.028 3346.65 305.52 3619.22 134.516 3700.13C60.461 3735.17 -70.729 3810.68 -150.127 3807.76C-254.072 3803.95 -326.781 3598.84 -359.079 3530.58Z" fill="url(#paint3_linear_282_25)"/>
</g>
<g style="mix-blend-mode:exclusion" filter="url(#filter4_f_282_25)">
<path d="M-72.9172 1237.79C-82.4883 1217.56 -156.349 1177.22 -87.7802 1130.15C-23.0647 1085.71 173.391 1006.57 259.514 965.82C436.887 881.894 603.701 874.307 622.305 913.626C640.91 952.946 505.683 1095.67 328.309 1179.59C251.496 1215.94 111.728 1286.46 40.4959 1306.94C-52.7586 1333.76 -62.3695 1260.08 -72.9172 1237.79Z" fill="url(#paint4_linear_282_25)"/>
</g>
<g style="mix-blend-mode:exclusion" filter="url(#filter5_f_282_25)">
<path d="M1168.43 3744.5C1107.85 3776.52 945.907 3916.1 873.104 3865.04C804.392 3816.84 742.939 3618.76 700.016 3537.55C611.615 3370.3 939.782 3722.29 1057.54 3660.05C1175.3 3597.81 1227.57 3076.63 1315.97 3243.89C1354.25 3316.32 1435.5 3444.04 1436.1 3523.49C1862.04 3865.03 1235.19 3709.21 1168.43 3744.5Z" fill="url(#paint5_linear_282_25)"/>
</g>
<g style="mix-blend-mode:exclusion" filter="url(#filter6_f_282_25)">
<path d="M1203.64 5473.3C1189.96 5444.4 1131.97 5364.27 1151.1 5334.31C1169.15 5306.04 1246.83 5289.02 1278.4 5274.08C1343.42 5243.31 1433.87 5302.45 1460.45 5358.62C1487.03 5414.8 1469.79 5535.44 1404.77 5566.21C1376.61 5579.53 1327.18 5609.19 1295.64 5605.22C1254.35 5600.03 1218.7 5505.15 1203.64 5473.3Z" fill="url(#paint6_linear_282_25)"/>
</g>
<g style="mix-blend-mode:exclusion" filter="url(#filter7_f_282_25)">
<path d="M1625.71 565.044C1625.71 631.836 1696.95 834.961 1578.8 874.44C1467.28 911.7 1163.06 874.44 1025.97 874.44C743.63 874.44 522 681.966 522 552.136C522 422.306 785.708 209.884 1068.05 209.884C1190.32 209.884 1415.51 198.046 1520.76 233.716C1658.55 280.413 1625.71 491.438 1625.71 565.044Z" fill="url(#paint7_linear_282_25)"/>
</g>
<g style="mix-blend-mode:exclusion" filter="url(#filter8_f_282_25)">
<path d="M1167.99 6473.04C1167.99 6539.84 1241.64 6742.96 1119.49 6782.44C1004.21 6819.7 689.718 6782.44 547.997 6782.44C256.116 6782.44 27 6589.97 27 6460.14C27 6330.31 299.616 6117.88 591.496 6117.88C717.897 6117.88 950.687 6106.05 1059.49 6141.72C1201.94 6188.41 1167.99 6399.44 1167.99 6473.04Z" fill="url(#paint8_linear_282_25)"/>
</g>
<g style="mix-blend-mode:exclusion" filter="url(#filter9_f_282_25)">
<path d="M-176.808 5742.48C-194.912 5704.21 -266.168 5595.52 -250.003 5560.19C-234.745 5526.85 -155.47 5515.46 -124.298 5500.71C-60.0964 5470.33 42.4698 5556.75 77.6607 5631.12C112.852 5705.5 110.465 5855.56 46.2641 5885.93C18.4612 5899.09 -29.5337 5930.1 -63.1349 5920.99C-107.124 5909.06 -156.856 5784.64 -176.808 5742.48Z" fill="url(#paint9_linear_282_25)"/>
</g>
<g style="mix-blend-mode:exclusion" filter="url(#filter10_f_282_25)">
<path d="M473.873 6587.49C452.565 6542.46 334.603 6430.66 410.181 6362.32C481.512 6297.82 720.426 6215.53 822.731 6167.12C1033.43 6067.42 1260.23 6118.94 1301.65 6206.47C1343.07 6294.01 1214.04 6530.35 1003.34 6630.04C912.09 6673.22 747.821 6760.71 657.896 6773.82C540.171 6790.99 497.355 6637.12 473.873 6587.49Z" fill="url(#paint10_linear_282_25)"/>
</g>
<g style="mix-blend-mode:exclusion" filter="url(#filter11_f_282_25)">
<path d="M205.875 4689.64C193.681 4663.87 111.872 4606.66 178.843 4556.32C242.052 4508.82 439.851 4432.83 525.92 4392.1C703.183 4308.23 877.468 4316.66 901.171 4366.75C924.874 4416.85 798.093 4577.15 620.83 4661.02C544.065 4697.34 404.85 4768.8 332.258 4786.31C237.224 4809.22 219.313 4718.04 205.875 4689.64Z" fill="url(#paint11_linear_282_25)"/>
</g>
<defs>
<filter id="filter0_f_282_25" x="-194.112" y="1806.14" width="862.872" height="840.046" filterUnits="userSpaceOnUse" color-interpolation-filters="sRGB">
<feFlood flood-opacity="0" result="BackgroundImageFix"/>
<feBlend mode="normal" in="SourceGraphic" in2="BackgroundImageFix" result="shape"/>
<feGaussianBlur stdDeviation="125" result="effect1_foregroundBlur_282_25"/>
</filter>
<filter id="filter1_f_282_25" x="-175.979" y="1318.39" width="1620.98" height="1360.27" filterUnits="userSpaceOnUse" color-interpolation-filters="sRGB">
<feFlood flood-opacity="0" result="BackgroundImageFix"/>
<feBlend mode="normal" in="SourceGraphic" in2="BackgroundImageFix" result="shape"/>
<feGaussianBlur stdDeviation="125" result="effect1_foregroundBlur_282_25"/>
</filter>
<filter id="filter2_f_282_25" x="943.889" y="2270.14" width="862.872" height="840.046" filterUnits="userSpaceOnUse" color-interpolation-filters="sRGB">
<feFlood flood-opacity="0" result="BackgroundImageFix"/>
<feBlend mode="normal" in="SourceGraphic" in2="BackgroundImageFix" result="shape"/>
<feGaussianBlur stdDeviation="125" result="effect1_foregroundBlur_282_25"/>
</filter>
<filter id="filter3_f_282_25" x="-729.341" y="2794.72" width="1314.35" height="1263.13" filterUnits="userSpaceOnUse" color-interpolation-filters="sRGB">
<feFlood flood-opacity="0" result="BackgroundImageFix"/>
<feBlend mode="normal" in="SourceGraphic" in2="BackgroundImageFix" result="shape"/>
<feGaussianBlur stdDeviation="125" result="effect1_foregroundBlur_282_25"/>
</filter>
<filter id="filter4_f_282_25" x="-366.645" y="640.733" width="1240.66" height="922.004" filterUnits="userSpaceOnUse" color-interpolation-filters="sRGB">
<feFlood flood-opacity="0" result="BackgroundImageFix"/>
<feBlend mode="normal" in="SourceGraphic" in2="BackgroundImageFix" result="shape"/>
<feGaussianBlur stdDeviation="125" result="effect1_foregroundBlur_282_25"/>
</filter>
<filter id="filter5_f_282_25" x="435.09" y="2960.96" width="1398.27" height="1165.2" filterUnits="userSpaceOnUse" color-interpolation-filters="sRGB">
<feFlood flood-opacity="0" result="BackgroundImageFix"/>
<feBlend mode="normal" in="SourceGraphic" in2="BackgroundImageFix" result="shape"/>
<feGaussianBlur stdDeviation="125" result="effect1_foregroundBlur_282_25"/>
</filter>
<filter id="filter6_f_282_25" x="897.265" y="5015.64" width="825.165" height="839.943" filterUnits="userSpaceOnUse" color-interpolation-filters="sRGB">
<feFlood flood-opacity="0" result="BackgroundImageFix"/>
<feBlend mode="normal" in="SourceGraphic" in2="BackgroundImageFix" result="shape"/>
<feGaussianBlur stdDeviation="125" result="effect1_foregroundBlur_282_25"/>
</filter>
<filter id="filter7_f_282_25" x="272" y="-42" width="1625" height="1183" filterUnits="userSpaceOnUse" color-interpolation-filters="sRGB">
<feFlood flood-opacity="0" result="BackgroundImageFix"/>
<feBlend mode="normal" in="SourceGraphic" in2="BackgroundImageFix" result="shape"/>
<feGaussianBlur stdDeviation="125" result="effect1_foregroundBlur_282_25"/>
</filter>
<filter id="filter8_f_282_25" x="-223" y="5866" width="1663" height="1183" filterUnits="userSpaceOnUse" color-interpolation-filters="sRGB">
<feFlood flood-opacity="0" result="BackgroundImageFix"/>
<feBlend mode="normal" in="SourceGraphic" in2="BackgroundImageFix" result="shape"/>
<feGaussianBlur stdDeviation="125" result="effect1_foregroundBlur_282_25"/>
</filter>
<filter id="filter9_f_282_25" x="-502.37" y="5244.46" width="852.697" height="928.172" filterUnits="userSpaceOnUse" color-interpolation-filters="sRGB">
<feFlood flood-opacity="0" result="BackgroundImageFix"/>
<feBlend mode="normal" in="SourceGraphic" in2="BackgroundImageFix" result="shape"/>
<feGaussianBlur stdDeviation="125" result="effect1_foregroundBlur_282_25"/>
</filter>
<filter id="filter10_f_282_25" x="135.194" y="5862.64" width="1424.17" height="1162.52" filterUnits="userSpaceOnUse" color-interpolation-filters="sRGB">
<feFlood flood-opacity="0" result="BackgroundImageFix"/>
<feBlend mode="normal" in="SourceGraphic" in2="BackgroundImageFix" result="shape"/>
<feGaussianBlur stdDeviation="125" result="effect1_foregroundBlur_282_25"/>
</filter>
<filter id="filter11_f_282_25" x="-97.219" y="4078.99" width="1251.24" height="960.977" filterUnits="userSpaceOnUse" color-interpolation-filters="sRGB">
<feFlood flood-opacity="0" result="BackgroundImageFix"/>
<feBlend mode="normal" in="SourceGraphic" in2="BackgroundImageFix" result="shape"/>
<feGaussianBlur stdDeviation="125" result="effect1_foregroundBlur_282_25"/>
</filter>
<linearGradient id="paint0_linear_282_25" x1="1492.76" y1="5253.95" x2="1819.35" y2="5099.42" gradientUnits="userSpaceOnUse">
<stop stop-color="#9D0096"/>
<stop offset="1" stop-color="#FF0000"/>
</linearGradient>
<linearGradient id="paint1_linear_282_25" x1="3275.8" y1="8866.6" x2="4352.3" y2="8357.24" gradientUnits="userSpaceOnUse">
<stop stop-color="#9D0096"/>
<stop offset="1" stop-color="#FF0000"/>
</linearGradient>
<linearGradient id="paint2_linear_282_25" x1="2630.76" y1="5717.95" x2="2957.35" y2="5563.42" gradientUnits="userSpaceOnUse">
<stop stop-color="#9D0096"/>
<stop offset="1" stop-color="#FF0000"/>
</linearGradient>
<linearGradient id="paint3_linear_282_25" x1="2745.26" y1="10221.2" x2="3478.2" y2="9874.41" gradientUnits="userSpaceOnUse">
<stop stop-color="#9D0096"/>
<stop offset="1" stop-color="#FF0000"/>
</linearGradient>
<linearGradient id="paint4_linear_282_25" x1="905.23" y1="3439.64" x2="1665.47" y2="3079.93" gradientUnits="userSpaceOnUse">
<stop stop-color="#9D0096"/>
<stop offset="1" stop-color="#FF0000"/>
</linearGradient>
<linearGradient id="paint5_linear_282_25" x1="8070.95" y1="329.29" x2="7759.65" y2="-259.686" gradientUnits="userSpaceOnUse">
<stop stop-color="#9D0096"/>
<stop offset="1" stop-color="#FF0000"/>
</linearGradient>
<linearGradient id="paint6_linear_282_25" x1="2656.37" y1="8592.91" x2="2935.05" y2="8461.05" gradientUnits="userSpaceOnUse">
<stop stop-color="#9D0096"/>
<stop offset="1" stop-color="#FF0000"/>
</linearGradient>
<linearGradient id="paint7_linear_282_25" x1="1708.53" y1="-6623.98" x2="498.382" y2="-6623.98" gradientUnits="userSpaceOnUse">
<stop stop-color="#9D0096"/>
<stop offset="1" stop-color="#FF0000"/>
</linearGradient>
<linearGradient id="paint8_linear_282_25" x1="1253.61" y1="-715.982" x2="2.58448" y2="-715.98" gradientUnits="userSpaceOnUse">
<stop stop-color="#9D0096"/>
<stop offset="1" stop-color="#FF0000"/>
</linearGradient>
<linearGradient id="paint9_linear_282_25" x1="1752.97" y1="9869.68" x2="2028.14" y2="9739.48" gradientUnits="userSpaceOnUse">
<stop stop-color="#9D0096"/>
<stop offset="1" stop-color="#FF0000"/>
</linearGradient>
<linearGradient id="paint10_linear_282_25" x1="2705.51" y1="11463.8" x2="3608.59" y2="11036.5" gradientUnits="userSpaceOnUse">
<stop stop-color="#9D0096"/>
<stop offset="1" stop-color="#FF0000"/>
</linearGradient>
<linearGradient id="paint11_linear_282_25" x1="1466.37" y1="7488.14" x2="2226.14" y2="7128.65" gradientUnits="userSpaceOnUse">
<stop stop-color="#9D0096"/>
<stop offset="1" stop-color="#FF0000"/>
</linearGradient>
</defs>
</svg>
