<svg width="75" height="75" viewBox="0 0 75 75" fill="none" xmlns="http://www.w3.org/2000/svg">
<path d="M24.9688 29.7812H45.9063C47.0717 29.6451 47.9504 28.6577 47.9504 27.4844C47.9504 26.311 47.0717 25.3237 45.9063 25.1875H24.9688C24.0842 25.0841 23.2189 25.4979 22.744 26.2514C22.2692 27.0048 22.2692 27.964 22.744 28.7174C23.2189 29.4708 24.0842 29.8846 24.9688 29.7812Z" fill="url(#paint0_linear_390_244)"/>
<path d="M24.9688 54.7812H39.9063C40.7908 54.8846 41.6561 54.4708 42.131 53.7174C42.6058 52.964 42.6058 52.0048 42.131 51.2514C41.6561 50.4979 40.7908 50.0841 39.9063 50.1875H24.9688C24.0842 50.0841 23.2189 50.4979 22.744 51.2514C22.2692 52.0048 22.2692 52.964 22.744 53.7174C23.2189 54.4708 24.0842 54.8846 24.9688 54.7812Z" fill="url(#paint1_linear_390_244)"/>
<path d="M51.875 42.2812H24.9688C24.0842 42.3846 23.2189 41.9708 22.744 41.2174C22.2692 40.464 22.2692 39.5048 22.744 38.7514C23.2189 37.9979 24.0842 37.5841 24.9688 37.6875H51.875C53.0404 37.8237 53.9191 38.811 53.9191 39.9844C53.9191 41.1577 53.0404 42.1451 51.875 42.2812Z" fill="url(#paint2_linear_390_244)"/>
<path fill-rule="evenodd" clip-rule="evenodd" d="M49.3437 70.5938H27.4687C19.1967 70.5765 12.5 63.8658 12.5 55.5937V21.2187C12.5172 12.9589 19.2089 6.26719 27.4687 6.25H49.3437C57.6158 6.24998 64.3265 12.9467 64.3438 21.2187V55.5937C64.3438 59.572 62.7634 63.3873 59.9504 66.2004C57.1373 69.0134 53.322 70.5938 49.3437 70.5938ZM27.4687 11.2188C21.953 11.2359 17.4859 15.703 17.4687 21.2187V55.5937C17.4687 61.1217 21.9408 65.6078 27.4687 65.625H49.3437C54.8838 65.625 59.375 61.1339 59.375 55.5937V21.2187C59.3578 15.6909 54.8717 11.2187 49.3437 11.2188H27.4687Z" fill="url(#paint3_linear_390_244)"/>
<defs>
<linearGradient id="paint0_linear_390_244" x1="67.1793" y1="-637.374" x2="11.4116" y2="-637.374" gradientUnits="userSpaceOnUse">
<stop stop-color="#9D0096"/>
<stop offset="1" stop-color="#FF0000"/>
</linearGradient>
<linearGradient id="paint1_linear_390_244" x1="67.1793" y1="-637.374" x2="11.4116" y2="-637.374" gradientUnits="userSpaceOnUse">
<stop stop-color="#9D0096"/>
<stop offset="1" stop-color="#FF0000"/>
</linearGradient>
<linearGradient id="paint2_linear_390_244" x1="67.1793" y1="-637.374" x2="11.4116" y2="-637.374" gradientUnits="userSpaceOnUse">
<stop stop-color="#9D0096"/>
<stop offset="1" stop-color="#FF0000"/>
</linearGradient>
<linearGradient id="paint3_linear_390_244" x1="67.1793" y1="-637.374" x2="11.4116" y2="-637.374" gradientUnits="userSpaceOnUse">
<stop stop-color="#9D0096"/>
<stop offset="1" stop-color="#FF0000"/>
</linearGradient>
</defs>
</svg>
