<svg width="75" height="75" viewBox="0 0 75 75" fill="none" xmlns="http://www.w3.org/2000/svg">
<path fill-rule="evenodd" clip-rule="evenodd" d="M12.0938 39.0625H23.0312C24.8961 39.0625 26.6845 39.8033 28.0031 41.1219C29.3217 42.4405 30.0625 44.2289 30.0625 46.0938V57.0312C30.0625 58.8961 29.3217 60.6845 28.0031 62.0031C26.6845 63.3217 24.8961 64.0625 23.0312 64.0625H12.0938C8.2105 64.0625 5.0625 60.9145 5.0625 57.0312V46.0938C5.0625 42.2105 8.2105 39.0625 12.0938 39.0625ZM23.0312 59.375C24.3257 59.375 25.375 58.3257 25.375 57.0312V46.0938C25.375 44.7993 24.3257 43.75 23.0312 43.75H12.0938C10.8064 43.7668 9.76683 44.8064 9.75 46.0938V57.0312C9.76683 58.3186 10.8064 59.3582 12.0938 59.375H23.0312Z" fill="url(#paint0_linear_390_251)"/>
<path d="M42.5625 42.9688C41.2681 42.9688 40.2188 44.0181 40.2188 45.3125C40.2188 46.6069 41.2681 47.6562 42.5625 47.6562H58.1875C59.4819 47.6562 60.5312 46.6069 60.5312 45.3125C60.5312 44.0181 59.4819 42.9688 58.1875 42.9688H42.5625Z" fill="url(#paint1_linear_390_251)"/>
<path d="M67.5625 55.4688H42.5625C41.2681 55.4688 40.2188 56.5181 40.2188 57.8125C40.2188 59.1069 41.2681 60.1562 42.5625 60.1562H67.5625C68.8569 60.1562 69.9062 59.1069 69.9062 57.8125C69.9062 56.5181 68.8569 55.4688 67.5625 55.4688Z" fill="url(#paint2_linear_390_251)"/>
<path fill-rule="evenodd" clip-rule="evenodd" d="M61.3125 32.8125H11.3125C7.86072 32.8125 5.0625 30.0143 5.0625 26.5625V17.1875C5.0625 13.7357 7.86072 10.9375 11.3125 10.9375H61.3125C64.7643 10.9375 67.5625 13.7357 67.5625 17.1875V26.5625C67.5625 30.0143 64.7643 32.8125 61.3125 32.8125ZM11.3125 15.625C10.4496 15.625 9.75 16.3246 9.75 17.1875V26.5625C9.75 27.4254 10.4496 28.125 11.3125 28.125H61.3125C62.1754 28.125 62.875 27.4254 62.875 26.5625V17.1875C62.875 16.3246 62.1754 15.625 61.3125 15.625H11.3125Z" fill="url(#paint3_linear_390_251)"/>
<defs>
<linearGradient id="paint0_linear_390_251" x1="73.4529" y1="-520.467" x2="3.7012" y2="-520.467" gradientUnits="userSpaceOnUse">
<stop stop-color="#9D0096"/>
<stop offset="1" stop-color="#FF0000"/>
</linearGradient>
<linearGradient id="paint1_linear_390_251" x1="73.4529" y1="-520.467" x2="3.7012" y2="-520.467" gradientUnits="userSpaceOnUse">
<stop stop-color="#9D0096"/>
<stop offset="1" stop-color="#FF0000"/>
</linearGradient>
<linearGradient id="paint2_linear_390_251" x1="73.4529" y1="-520.467" x2="3.7012" y2="-520.467" gradientUnits="userSpaceOnUse">
<stop stop-color="#9D0096"/>
<stop offset="1" stop-color="#FF0000"/>
</linearGradient>
<linearGradient id="paint3_linear_390_251" x1="73.4529" y1="-520.467" x2="3.7012" y2="-520.467" gradientUnits="userSpaceOnUse">
<stop stop-color="#9D0096"/>
<stop offset="1" stop-color="#FF0000"/>
</linearGradient>
</defs>
</svg>
