<svg width="75" height="75" viewBox="0 0 75 75" fill="none" xmlns="http://www.w3.org/2000/svg">
<path fill-rule="evenodd" clip-rule="evenodd" d="M51.9948 6.25074H26.1302C22.1232 6.19414 18.8242 9.38722 18.75 13.394V63.4304C18.8242 67.4372 22.1232 70.6303 26.1302 70.5737H51.9948C56.0018 70.6303 59.3008 67.4372 59.375 63.4304V13.394C59.3008 9.38722 56.0018 6.19414 51.9948 6.25074ZM34.8307 11.3289H43.2943V13.0216C43.2943 13.489 42.9153 13.8679 42.4479 13.8679H35.6771C35.2097 13.8679 34.8307 13.489 34.8307 13.0216V11.3289ZM51.9948 65.4955C53.1981 65.5533 54.2241 64.6329 54.2969 63.4304V13.394C54.2241 12.1915 53.1981 11.2711 51.9948 11.3289H48.3724V13.0216C48.3724 14.5928 47.7482 16.0998 46.6372 17.2108C45.5261 18.3219 44.0192 18.9461 42.4479 18.9461H35.6771C32.4051 18.9461 29.7526 16.2936 29.7526 13.0216V11.3289H26.1302C24.9269 11.2711 23.9009 12.1915 23.8281 13.394V63.4304C23.9009 64.6329 24.9269 65.5533 26.1302 65.4955H51.9948Z" fill="url(#paint0_linear_390_237)"/>
<defs>
<linearGradient id="paint0_linear_390_237" x1="61.597" y1="-637.181" x2="17.8971" y2="-637.181" gradientUnits="userSpaceOnUse">
<stop stop-color="#9D0096"/>
<stop offset="1" stop-color="#FF0000"/>
</linearGradient>
</defs>
</svg>
