<svg width="75" height="75" viewBox="0 0 75 75" fill="none" xmlns="http://www.w3.org/2000/svg">
<path fill-rule="evenodd" clip-rule="evenodd" d="M26.5625 7.8125H48.4375C58.7928 7.8125 67.1875 16.2072 67.1875 26.5625V48.4375C67.1875 58.7928 58.7928 67.1875 48.4375 67.1875H26.5625C16.2072 67.1875 7.8125 58.7928 7.8125 48.4375V26.5625C7.8125 16.2072 16.2072 7.8125 26.5625 7.8125ZM48.4375 62.5C56.1969 62.4828 62.4828 56.1969 62.5 48.4375V26.5625C62.4828 18.8031 56.1969 12.5172 48.4375 12.5H26.5625C18.8031 12.5172 12.5172 18.8031 12.5 26.5625V48.4375C12.5172 56.1969 18.8031 62.4828 26.5625 62.5H48.4375Z" fill="url(#paint0_linear_390_230)"/>
<path d="M47.4375 21.875C46.1501 21.8918 45.1106 22.9314 45.0938 24.2188C45.0612 26.1914 44.2396 28.0688 42.8125 29.4313C41.3855 30.7937 39.4721 31.5275 37.5 31.4687C33.438 31.5916 30.0422 28.4053 29.9063 24.3437C29.9063 23.0493 28.8569 22 27.5625 22C26.2681 22 25.2188 23.0493 25.2188 24.3437C25.3555 30.9939 30.8496 36.2783 37.5 36.1562C44.1504 36.2783 49.6445 30.9939 49.7813 24.3437C49.8156 23.7008 49.5839 23.072 49.1406 22.6051C48.6973 22.1381 48.0814 21.8741 47.4375 21.875Z" fill="url(#paint1_linear_390_230)"/>
<defs>
<linearGradient id="paint0_linear_390_230" x1="70.435" y1="-586.11" x2="6.56601" y2="-586.11" gradientUnits="userSpaceOnUse">
<stop stop-color="#9D0096"/>
<stop offset="1" stop-color="#FF0000"/>
</linearGradient>
<linearGradient id="paint1_linear_390_230" x1="70.435" y1="-586.11" x2="6.56601" y2="-586.11" gradientUnits="userSpaceOnUse">
<stop stop-color="#9D0096"/>
<stop offset="1" stop-color="#FF0000"/>
</linearGradient>
</defs>
</svg>
